<mxfile host="Electron" agent="Mozilla/5.0 (Windows NT 10.0; Win64; x64) AppleWebKit/537.36 (KHTML, like Gecko) draw.io/26.0.9 Chrome/128.0.6613.186 Electron/32.2.5 Safari/537.36" version="26.0.9">
  <diagram name="Страница — 1" id="djVbPSk9yrsbl7U0iw4w">
    <mxGraphModel dx="4097" dy="2389" grid="1" gridSize="10" guides="1" tooltips="1" connect="1" arrows="1" fold="1" page="1" pageScale="1" pageWidth="827" pageHeight="1169" math="0" shadow="0">
      <root>
        <mxCell id="0" />
        <mxCell id="1" parent="0" />
        <mxCell id="xVjce5FviYvm1MwedaSM-1" value="" style="edgeStyle=orthogonalEdgeStyle;rounded=0;orthogonalLoop=1;jettySize=auto;html=1;" edge="1" source="xVjce5FviYvm1MwedaSM-2" parent="1">
          <mxGeometry relative="1" as="geometry">
            <mxPoint x="300" y="140" as="targetPoint" />
          </mxGeometry>
        </mxCell>
        <mxCell id="xVjce5FviYvm1MwedaSM-2" value="Начало" style="ellipse;whiteSpace=wrap;html=1;" vertex="1" parent="1">
          <mxGeometry x="240" y="70" width="120" height="40" as="geometry" />
        </mxCell>
        <mxCell id="xVjce5FviYvm1MwedaSM-3" value="" style="edgeStyle=orthogonalEdgeStyle;rounded=0;orthogonalLoop=1;jettySize=auto;html=1;" edge="1" source="xVjce5FviYvm1MwedaSM-4" parent="1">
          <mxGeometry relative="1" as="geometry">
            <mxPoint x="300" y="190" as="targetPoint" />
          </mxGeometry>
        </mxCell>
        <mxCell id="xVjce5FviYvm1MwedaSM-4" value="int main()" style="shape=process;whiteSpace=wrap;html=1;backgroundOutline=1;" vertex="1" parent="1">
          <mxGeometry x="240" y="140" width="120" height="30" as="geometry" />
        </mxCell>
        <mxCell id="xVjce5FviYvm1MwedaSM-7" value="setlocale(LC_ALL, &quot;Russian&quot;);" style="rounded=0;whiteSpace=wrap;html=1;" vertex="1" parent="1">
          <mxGeometry x="240" y="190" width="120" height="30" as="geometry" />
        </mxCell>
        <mxCell id="xVjce5FviYvm1MwedaSM-8" value="" style="edgeStyle=orthogonalEdgeStyle;rounded=0;orthogonalLoop=1;jettySize=auto;html=1;" edge="1" parent="1">
          <mxGeometry relative="1" as="geometry">
            <mxPoint x="300" y="220" as="sourcePoint" />
            <mxPoint x="300" y="240" as="targetPoint" />
          </mxGeometry>
        </mxCell>
        <mxCell id="xVjce5FviYvm1MwedaSM-9" value="&lt;div&gt;#define _CRT_SECURE_NO_WARNINGS&lt;/div&gt;&lt;div&gt;#include &amp;lt;iostream&amp;gt;&lt;/div&gt;&lt;div&gt;#include &amp;lt;cstdlib&amp;gt;&lt;/div&gt;&lt;div&gt;using namespace std;&lt;/div&gt;&lt;div&gt;FILE* fp = fopen(&quot;F1.txt&quot;, &quot;r&quot;);&lt;br&gt;&lt;/div&gt;&lt;div&gt;FILE* in = fopen(&quot;F2.txt&quot;, &quot;w&quot;);&lt;br&gt;&lt;/div&gt;&lt;div&gt;&lt;div&gt;char buff[100];&lt;/div&gt;&lt;div&gt;int count_str = 0;&lt;/div&gt;&lt;/div&gt;&lt;div&gt;string**&amp;nbsp; words = new string * [count_str];&amp;nbsp;&lt;br&gt;&lt;/div&gt;&lt;div&gt;int* count_w = new int[count_str];&lt;br&gt;&lt;/div&gt;" style="strokeWidth=2;html=1;shape=mxgraph.flowchart.annotation_2;align=left;labelPosition=right;pointerEvents=1;" vertex="1" parent="1">
          <mxGeometry x="380" y="50" width="50" height="140" as="geometry" />
        </mxCell>
        <mxCell id="xVjce5FviYvm1MwedaSM-10" value="" style="endArrow=none;dashed=1;html=1;rounded=0;entryX=-0.04;entryY=0.503;entryDx=0;entryDy=0;entryPerimeter=0;" edge="1" target="xVjce5FviYvm1MwedaSM-9" parent="1">
          <mxGeometry width="50" height="50" relative="1" as="geometry">
            <mxPoint x="300" y="120" as="sourcePoint" />
            <mxPoint x="370" y="120" as="targetPoint" />
          </mxGeometry>
        </mxCell>
        <mxCell id="xVjce5FviYvm1MwedaSM-12" style="edgeStyle=orthogonalEdgeStyle;rounded=0;orthogonalLoop=1;jettySize=auto;html=1;exitX=0;exitY=0.5;exitDx=0;exitDy=0;" edge="1" parent="1" source="xVjce5FviYvm1MwedaSM-11">
          <mxGeometry relative="1" as="geometry">
            <mxPoint x="160" y="310" as="targetPoint" />
          </mxGeometry>
        </mxCell>
        <mxCell id="xVjce5FviYvm1MwedaSM-17" style="edgeStyle=orthogonalEdgeStyle;rounded=0;orthogonalLoop=1;jettySize=auto;html=1;exitX=1;exitY=0.5;exitDx=0;exitDy=0;" edge="1" parent="1" source="xVjce5FviYvm1MwedaSM-11">
          <mxGeometry relative="1" as="geometry">
            <mxPoint x="310" y="430" as="targetPoint" />
            <Array as="points">
              <mxPoint x="380" y="270" />
              <mxPoint x="380" y="430" />
            </Array>
          </mxGeometry>
        </mxCell>
        <mxCell id="xVjce5FviYvm1MwedaSM-11" value="if (fp == NULL)" style="rhombus;whiteSpace=wrap;html=1;" vertex="1" parent="1">
          <mxGeometry x="240" y="240" width="120" height="60" as="geometry" />
        </mxCell>
        <mxCell id="xVjce5FviYvm1MwedaSM-15" style="edgeStyle=orthogonalEdgeStyle;rounded=0;orthogonalLoop=1;jettySize=auto;html=1;exitX=0.5;exitY=1;exitDx=0;exitDy=0;" edge="1" parent="1" source="xVjce5FviYvm1MwedaSM-14">
          <mxGeometry relative="1" as="geometry">
            <mxPoint x="155.09523809523807" y="360" as="targetPoint" />
          </mxGeometry>
        </mxCell>
        <mxCell id="xVjce5FviYvm1MwedaSM-14" value="perror(&quot;Ошибка!&quot;);" style="shape=parallelogram;perimeter=parallelogramPerimeter;whiteSpace=wrap;html=1;fixedSize=1;" vertex="1" parent="1">
          <mxGeometry x="90" y="310" width="130" height="30" as="geometry" />
        </mxCell>
        <mxCell id="xVjce5FviYvm1MwedaSM-18" style="edgeStyle=orthogonalEdgeStyle;rounded=0;orthogonalLoop=1;jettySize=auto;html=1;exitX=0.5;exitY=1;exitDx=0;exitDy=0;" edge="1" parent="1" source="xVjce5FviYvm1MwedaSM-16">
          <mxGeometry relative="1" as="geometry">
            <mxPoint x="310" y="430" as="targetPoint" />
            <Array as="points">
              <mxPoint x="155" y="430" />
            </Array>
          </mxGeometry>
        </mxCell>
        <mxCell id="xVjce5FviYvm1MwedaSM-16" value="return 1;" style="ellipse;whiteSpace=wrap;html=1;" vertex="1" parent="1">
          <mxGeometry x="95" y="360" width="120" height="40" as="geometry" />
        </mxCell>
        <mxCell id="xVjce5FviYvm1MwedaSM-19" value="1" style="text;html=1;align=center;verticalAlign=middle;resizable=0;points=[];autosize=1;strokeColor=none;fillColor=none;" vertex="1" parent="1">
          <mxGeometry x="205" y="238" width="30" height="30" as="geometry" />
        </mxCell>
        <mxCell id="xVjce5FviYvm1MwedaSM-20" value="0" style="text;html=1;align=center;verticalAlign=middle;resizable=0;points=[];autosize=1;strokeColor=none;fillColor=none;" vertex="1" parent="1">
          <mxGeometry x="350" y="238" width="30" height="30" as="geometry" />
        </mxCell>
        <mxCell id="xVjce5FviYvm1MwedaSM-21" value="" style="endArrow=classic;html=1;rounded=0;" edge="1" parent="1">
          <mxGeometry width="50" height="50" relative="1" as="geometry">
            <mxPoint x="310" y="430" as="sourcePoint" />
            <mxPoint x="310" y="460" as="targetPoint" />
          </mxGeometry>
        </mxCell>
        <mxCell id="xVjce5FviYvm1MwedaSM-23" style="edgeStyle=orthogonalEdgeStyle;rounded=0;orthogonalLoop=1;jettySize=auto;html=1;exitX=0.5;exitY=1;exitDx=0;exitDy=0;" edge="1" parent="1" source="xVjce5FviYvm1MwedaSM-22">
          <mxGeometry relative="1" as="geometry">
            <mxPoint x="309.8571428571428" y="550" as="targetPoint" />
          </mxGeometry>
        </mxCell>
        <mxCell id="xVjce5FviYvm1MwedaSM-26" style="edgeStyle=orthogonalEdgeStyle;rounded=0;orthogonalLoop=1;jettySize=auto;html=1;exitX=1;exitY=0.5;exitDx=0;exitDy=0;" edge="1" parent="1" source="xVjce5FviYvm1MwedaSM-22">
          <mxGeometry relative="1" as="geometry">
            <mxPoint x="530" y="540" as="targetPoint" />
          </mxGeometry>
        </mxCell>
        <mxCell id="xVjce5FviYvm1MwedaSM-22" value="&lt;font style=&quot;font-size: 10px;&quot;&gt;while (fgets(buff, sizeof (buff),&lt;/font&gt;&lt;div&gt;&lt;font style=&quot;font-size: 10px;&quot;&gt;&amp;nbsp;fp) != NULL)&amp;nbsp;&lt;/font&gt;&lt;/div&gt;" style="rhombus;whiteSpace=wrap;html=1;" vertex="1" parent="1">
          <mxGeometry x="210" y="460" width="200" height="60" as="geometry" />
        </mxCell>
        <mxCell id="xVjce5FviYvm1MwedaSM-25" style="edgeStyle=orthogonalEdgeStyle;rounded=0;orthogonalLoop=1;jettySize=auto;html=1;exitX=0.5;exitY=1;exitDx=0;exitDy=0;" edge="1" parent="1" source="xVjce5FviYvm1MwedaSM-24">
          <mxGeometry relative="1" as="geometry">
            <mxPoint x="309.8571428571428" y="440" as="targetPoint" />
            <Array as="points">
              <mxPoint x="310" y="600" />
              <mxPoint x="160" y="600" />
              <mxPoint x="160" y="440" />
            </Array>
          </mxGeometry>
        </mxCell>
        <mxCell id="xVjce5FviYvm1MwedaSM-24" value="count_str++;" style="rounded=0;whiteSpace=wrap;html=1;" vertex="1" parent="1">
          <mxGeometry x="250" y="550" width="120" height="30" as="geometry" />
        </mxCell>
        <mxCell id="xVjce5FviYvm1MwedaSM-27" value="fseek(fp, 0, SEEK_SET);" style="rounded=0;whiteSpace=wrap;html=1;" vertex="1" parent="1">
          <mxGeometry x="470" y="540" width="120" height="30" as="geometry" />
        </mxCell>
        <mxCell id="xVjce5FviYvm1MwedaSM-28" value="" style="edgeStyle=orthogonalEdgeStyle;rounded=0;orthogonalLoop=1;jettySize=auto;html=1;" edge="1" parent="1">
          <mxGeometry relative="1" as="geometry">
            <mxPoint x="533.9714285714285" y="570" as="sourcePoint" />
            <mxPoint x="533.9714285714285" y="590" as="targetPoint" />
          </mxGeometry>
        </mxCell>
        <mxCell id="xVjce5FviYvm1MwedaSM-30" value="" style="verticalLabelPosition=bottom;verticalAlign=top;html=1;shape=hexagon;perimeter=hexagonPerimeter2;arcSize=6;size=0.11951219512195121;" vertex="1" parent="1">
          <mxGeometry x="429.47142857142853" y="590" width="205" height="50" as="geometry" />
        </mxCell>
        <mxCell id="xVjce5FviYvm1MwedaSM-31" value="" style="edgeStyle=orthogonalEdgeStyle;rounded=0;orthogonalLoop=1;jettySize=auto;html=1;" edge="1" parent="1">
          <mxGeometry relative="1" as="geometry">
            <mxPoint x="533.7314285714285" y="640" as="sourcePoint" />
            <mxPoint x="533.9714285714285" y="660" as="targetPoint" />
          </mxGeometry>
        </mxCell>
        <mxCell id="xVjce5FviYvm1MwedaSM-32" value="for (int i = 0; i &amp;lt; count_str; i++)" style="text;html=1;align=center;verticalAlign=middle;whiteSpace=wrap;rounded=0;" vertex="1" parent="1">
          <mxGeometry x="450" y="600" width="170" height="30" as="geometry" />
        </mxCell>
        <mxCell id="xVjce5FviYvm1MwedaSM-38" style="edgeStyle=orthogonalEdgeStyle;rounded=0;orthogonalLoop=1;jettySize=auto;html=1;exitX=0.5;exitY=1;exitDx=0;exitDy=0;" edge="1" parent="1" source="xVjce5FviYvm1MwedaSM-37">
          <mxGeometry relative="1" as="geometry">
            <mxPoint x="530.1428571428571" y="710" as="targetPoint" />
          </mxGeometry>
        </mxCell>
        <mxCell id="xVjce5FviYvm1MwedaSM-37" value="int pos = ftell(fp);" style="rounded=0;whiteSpace=wrap;html=1;" vertex="1" parent="1">
          <mxGeometry x="470" y="660" width="120" height="30" as="geometry" />
        </mxCell>
        <mxCell id="xVjce5FviYvm1MwedaSM-39" value="fgets(buff, sizeof(buff), fp);" style="rounded=0;whiteSpace=wrap;html=1;" vertex="1" parent="1">
          <mxGeometry x="470" y="710" width="120" height="30" as="geometry" />
        </mxCell>
        <mxCell id="xVjce5FviYvm1MwedaSM-40" style="edgeStyle=orthogonalEdgeStyle;rounded=0;orthogonalLoop=1;jettySize=auto;html=1;exitX=0.5;exitY=1;exitDx=0;exitDy=0;" edge="1" parent="1">
          <mxGeometry relative="1" as="geometry">
            <mxPoint x="530.1428571428571" y="760" as="targetPoint" />
            <mxPoint x="530" y="740" as="sourcePoint" />
          </mxGeometry>
        </mxCell>
        <mxCell id="xVjce5FviYvm1MwedaSM-42" style="edgeStyle=orthogonalEdgeStyle;rounded=0;orthogonalLoop=1;jettySize=auto;html=1;exitX=0.5;exitY=1;exitDx=0;exitDy=0;" edge="1" parent="1" source="xVjce5FviYvm1MwedaSM-41">
          <mxGeometry relative="1" as="geometry">
            <mxPoint x="530.1428571428571" y="810" as="targetPoint" />
          </mxGeometry>
        </mxCell>
        <mxCell id="xVjce5FviYvm1MwedaSM-41" value="char* p = strtok(buff, &quot; \t\n&quot;);" style="rounded=0;whiteSpace=wrap;html=1;" vertex="1" parent="1">
          <mxGeometry x="470" y="760" width="120" height="30" as="geometry" />
        </mxCell>
        <mxCell id="xVjce5FviYvm1MwedaSM-45" style="edgeStyle=orthogonalEdgeStyle;rounded=0;orthogonalLoop=1;jettySize=auto;html=1;exitX=0.5;exitY=1;exitDx=0;exitDy=0;entryX=0.5;entryY=0;entryDx=0;entryDy=0;" edge="1" parent="1" source="xVjce5FviYvm1MwedaSM-43" target="xVjce5FviYvm1MwedaSM-44">
          <mxGeometry relative="1" as="geometry" />
        </mxCell>
        <mxCell id="xVjce5FviYvm1MwedaSM-43" value="int w = 0;" style="rounded=0;whiteSpace=wrap;html=1;" vertex="1" parent="1">
          <mxGeometry x="470" y="810" width="120" height="30" as="geometry" />
        </mxCell>
        <mxCell id="xVjce5FviYvm1MwedaSM-47" style="edgeStyle=orthogonalEdgeStyle;rounded=0;orthogonalLoop=1;jettySize=auto;html=1;exitX=0.5;exitY=1;exitDx=0;exitDy=0;" edge="1" parent="1" source="xVjce5FviYvm1MwedaSM-44">
          <mxGeometry relative="1" as="geometry">
            <mxPoint x="529.5714285714287" y="940" as="targetPoint" />
          </mxGeometry>
        </mxCell>
        <mxCell id="xVjce5FviYvm1MwedaSM-52" style="edgeStyle=orthogonalEdgeStyle;rounded=0;orthogonalLoop=1;jettySize=auto;html=1;exitX=1;exitY=0.5;exitDx=0;exitDy=0;" edge="1" parent="1" source="xVjce5FviYvm1MwedaSM-44">
          <mxGeometry relative="1" as="geometry">
            <mxPoint x="740" y="930" as="targetPoint" />
          </mxGeometry>
        </mxCell>
        <mxCell id="xVjce5FviYvm1MwedaSM-44" value="&lt;span style=&quot;font-size: 10px;&quot;&gt;while (p != NULL)&lt;/span&gt;" style="rhombus;whiteSpace=wrap;html=1;" vertex="1" parent="1">
          <mxGeometry x="429.47" y="860" width="200" height="60" as="geometry" />
        </mxCell>
        <mxCell id="xVjce5FviYvm1MwedaSM-46" value="w++;" style="rounded=0;whiteSpace=wrap;html=1;" vertex="1" parent="1">
          <mxGeometry x="469.47" y="940" width="120" height="30" as="geometry" />
        </mxCell>
        <mxCell id="xVjce5FviYvm1MwedaSM-49" style="edgeStyle=orthogonalEdgeStyle;rounded=0;orthogonalLoop=1;jettySize=auto;html=1;exitX=0.5;exitY=1;exitDx=0;exitDy=0;" edge="1" parent="1">
          <mxGeometry relative="1" as="geometry">
            <mxPoint x="529.5714285714287" y="990" as="targetPoint" />
            <mxPoint x="529" y="970" as="sourcePoint" />
          </mxGeometry>
        </mxCell>
        <mxCell id="xVjce5FviYvm1MwedaSM-51" style="edgeStyle=orthogonalEdgeStyle;rounded=0;orthogonalLoop=1;jettySize=auto;html=1;exitX=0.5;exitY=1;exitDx=0;exitDy=0;" edge="1" parent="1" source="xVjce5FviYvm1MwedaSM-50">
          <mxGeometry relative="1" as="geometry">
            <mxPoint x="529.5714285714287" y="850" as="targetPoint" />
            <Array as="points">
              <mxPoint x="530" y="1040" />
              <mxPoint x="400" y="1040" />
              <mxPoint x="400" y="850" />
            </Array>
          </mxGeometry>
        </mxCell>
        <mxCell id="xVjce5FviYvm1MwedaSM-50" value="p = strtok(NULL, &quot; \t\n&quot;);" style="rounded=0;whiteSpace=wrap;html=1;" vertex="1" parent="1">
          <mxGeometry x="469.47" y="990" width="120" height="30" as="geometry" />
        </mxCell>
        <mxCell id="xVjce5FviYvm1MwedaSM-54" style="edgeStyle=orthogonalEdgeStyle;rounded=0;orthogonalLoop=1;jettySize=auto;html=1;exitX=0.5;exitY=1;exitDx=0;exitDy=0;" edge="1" parent="1" source="xVjce5FviYvm1MwedaSM-53">
          <mxGeometry relative="1" as="geometry">
            <mxPoint x="739.8571428571429" y="980" as="targetPoint" />
          </mxGeometry>
        </mxCell>
        <mxCell id="xVjce5FviYvm1MwedaSM-53" value="words[i] = new string[w];" style="rounded=0;whiteSpace=wrap;html=1;" vertex="1" parent="1">
          <mxGeometry x="680" y="930" width="120" height="30" as="geometry" />
        </mxCell>
        <mxCell id="xVjce5FviYvm1MwedaSM-55" value="&lt;div&gt;count_w[i] = w;&lt;/div&gt;" style="rounded=0;whiteSpace=wrap;html=1;" vertex="1" parent="1">
          <mxGeometry x="680" y="980" width="120" height="30" as="geometry" />
        </mxCell>
        <mxCell id="xVjce5FviYvm1MwedaSM-56" style="edgeStyle=orthogonalEdgeStyle;rounded=0;orthogonalLoop=1;jettySize=auto;html=1;exitX=0.5;exitY=1;exitDx=0;exitDy=0;" edge="1" parent="1">
          <mxGeometry relative="1" as="geometry">
            <mxPoint x="739.8571428571429" y="1030" as="targetPoint" />
            <mxPoint x="740" y="1010" as="sourcePoint" />
          </mxGeometry>
        </mxCell>
        <mxCell id="xVjce5FviYvm1MwedaSM-57" value="&lt;div&gt;fseek(fp, pos, SEEK_SET);&lt;/div&gt;" style="rounded=0;whiteSpace=wrap;html=1;" vertex="1" parent="1">
          <mxGeometry x="680" y="1030" width="120" height="30" as="geometry" />
        </mxCell>
        <mxCell id="xVjce5FviYvm1MwedaSM-58" style="edgeStyle=orthogonalEdgeStyle;rounded=0;orthogonalLoop=1;jettySize=auto;html=1;exitX=0.5;exitY=1;exitDx=0;exitDy=0;" edge="1" parent="1">
          <mxGeometry relative="1" as="geometry">
            <mxPoint x="739.8571428571429" y="1080" as="targetPoint" />
            <mxPoint x="740" y="1060" as="sourcePoint" />
          </mxGeometry>
        </mxCell>
        <mxCell id="xVjce5FviYvm1MwedaSM-59" value="&lt;div&gt;fgets(buff, sizeof(buff), fp);&lt;/div&gt;" style="rounded=0;whiteSpace=wrap;html=1;" vertex="1" parent="1">
          <mxGeometry x="680" y="1080" width="120" height="30" as="geometry" />
        </mxCell>
        <mxCell id="xVjce5FviYvm1MwedaSM-60" style="edgeStyle=orthogonalEdgeStyle;rounded=0;orthogonalLoop=1;jettySize=auto;html=1;exitX=0.5;exitY=1;exitDx=0;exitDy=0;" edge="1" parent="1">
          <mxGeometry relative="1" as="geometry">
            <mxPoint x="739.8571428571429" y="1130" as="targetPoint" />
            <mxPoint x="740" y="1110" as="sourcePoint" />
          </mxGeometry>
        </mxCell>
        <mxCell id="xVjce5FviYvm1MwedaSM-61" value="&lt;div&gt;p = strtok(buff, &quot; \t\n&quot;);&lt;/div&gt;" style="rounded=0;whiteSpace=wrap;html=1;" vertex="1" parent="1">
          <mxGeometry x="680" y="1130" width="120" height="30" as="geometry" />
        </mxCell>
        <mxCell id="xVjce5FviYvm1MwedaSM-63" value="" style="edgeStyle=orthogonalEdgeStyle;rounded=0;orthogonalLoop=1;jettySize=auto;html=1;" edge="1" parent="1">
          <mxGeometry relative="1" as="geometry">
            <mxPoint x="744.0014285714285" y="1160" as="sourcePoint" />
            <mxPoint x="744.0014285714285" y="1180" as="targetPoint" />
          </mxGeometry>
        </mxCell>
        <mxCell id="xVjce5FviYvm1MwedaSM-64" style="edgeStyle=orthogonalEdgeStyle;rounded=0;orthogonalLoop=1;jettySize=auto;html=1;exitX=1;exitY=0.5;exitDx=0;exitDy=0;entryX=0;entryY=0.5;entryDx=0;entryDy=0;" edge="1" source="xVjce5FviYvm1MwedaSM-65" parent="1" target="xVjce5FviYvm1MwedaSM-30">
          <mxGeometry relative="1" as="geometry">
            <mxPoint x="890" y="1290" as="targetPoint" />
            <Array as="points">
              <mxPoint x="865" y="1205" />
              <mxPoint x="865" y="1390" />
              <mxPoint x="380" y="1390" />
              <mxPoint x="380" y="615" />
            </Array>
          </mxGeometry>
        </mxCell>
        <mxCell id="xVjce5FviYvm1MwedaSM-65" value="" style="verticalLabelPosition=bottom;verticalAlign=top;html=1;shape=hexagon;perimeter=hexagonPerimeter2;arcSize=6;size=0.11951219512195121;" vertex="1" parent="1">
          <mxGeometry x="639.5014285714285" y="1180" width="205" height="50" as="geometry" />
        </mxCell>
        <mxCell id="xVjce5FviYvm1MwedaSM-66" value="" style="edgeStyle=orthogonalEdgeStyle;rounded=0;orthogonalLoop=1;jettySize=auto;html=1;" edge="1" parent="1">
          <mxGeometry relative="1" as="geometry">
            <mxPoint x="744" y="1230" as="sourcePoint" />
            <mxPoint x="744.0014285714285" y="1250" as="targetPoint" />
          </mxGeometry>
        </mxCell>
        <mxCell id="xVjce5FviYvm1MwedaSM-67" value="for (int j = 0; j &lt; w; j++)" style="text;html=1;align=center;verticalAlign=middle;whiteSpace=wrap;rounded=0;" vertex="1" parent="1">
          <mxGeometry x="670" y="1190" width="134" height="30" as="geometry" />
        </mxCell>
        <mxCell id="xVjce5FviYvm1MwedaSM-68" value="" style="edgeStyle=orthogonalEdgeStyle;rounded=0;orthogonalLoop=1;jettySize=auto;html=1;entryX=0;entryY=0.5;entryDx=0;entryDy=0;" edge="1" target="xVjce5FviYvm1MwedaSM-65" parent="1">
          <mxGeometry relative="1" as="geometry">
            <mxPoint x="744.0014285714285" y="1280" as="sourcePoint" />
            <mxPoint x="624.0014285714285" y="1250" as="targetPoint" />
            <Array as="points">
              <mxPoint x="744" y="1350" />
              <mxPoint x="620" y="1350" />
              <mxPoint x="620" y="1205" />
            </Array>
          </mxGeometry>
        </mxCell>
        <mxCell id="xVjce5FviYvm1MwedaSM-69" value="words[i][j] = p;" style="rounded=0;whiteSpace=wrap;html=1;" vertex="1" parent="1">
          <mxGeometry x="684.0014285714285" y="1250" width="120" height="30" as="geometry" />
        </mxCell>
        <mxCell id="xVjce5FviYvm1MwedaSM-70" value="p = strtok(NULL, &quot; \t\n&quot;);" style="rounded=0;whiteSpace=wrap;html=1;" vertex="1" parent="1">
          <mxGeometry x="674" y="1300" width="140" height="30" as="geometry" />
        </mxCell>
        <mxCell id="xVjce5FviYvm1MwedaSM-72" value="fclose(fp);" style="rounded=0;whiteSpace=wrap;html=1;" vertex="1" parent="1">
          <mxGeometry x="1050" y="660" width="120" height="30" as="geometry" />
        </mxCell>
        <mxCell id="xVjce5FviYvm1MwedaSM-73" value="" style="edgeStyle=orthogonalEdgeStyle;rounded=0;orthogonalLoop=1;jettySize=auto;html=1;" edge="1" parent="1">
          <mxGeometry relative="1" as="geometry">
            <mxPoint x="1120" y="690" as="sourcePoint" />
            <mxPoint x="1120" y="710" as="targetPoint" />
          </mxGeometry>
        </mxCell>
        <mxCell id="xVjce5FviYvm1MwedaSM-74" style="edgeStyle=orthogonalEdgeStyle;rounded=0;orthogonalLoop=1;jettySize=auto;html=1;exitX=0;exitY=0.5;exitDx=0;exitDy=0;" edge="1" parent="1" source="xVjce5FviYvm1MwedaSM-76">
          <mxGeometry relative="1" as="geometry">
            <mxPoint x="980" y="780" as="targetPoint" />
          </mxGeometry>
        </mxCell>
        <mxCell id="xVjce5FviYvm1MwedaSM-75" style="edgeStyle=orthogonalEdgeStyle;rounded=0;orthogonalLoop=1;jettySize=auto;html=1;exitX=1;exitY=0.5;exitDx=0;exitDy=0;" edge="1" parent="1" source="xVjce5FviYvm1MwedaSM-76">
          <mxGeometry relative="1" as="geometry">
            <mxPoint x="1130" y="900" as="targetPoint" />
            <Array as="points">
              <mxPoint x="1200" y="740" />
              <mxPoint x="1200" y="900" />
            </Array>
          </mxGeometry>
        </mxCell>
        <mxCell id="xVjce5FviYvm1MwedaSM-76" value="if (in == NULL)" style="rhombus;whiteSpace=wrap;html=1;" vertex="1" parent="1">
          <mxGeometry x="1060" y="710" width="120" height="60" as="geometry" />
        </mxCell>
        <mxCell id="xVjce5FviYvm1MwedaSM-77" style="edgeStyle=orthogonalEdgeStyle;rounded=0;orthogonalLoop=1;jettySize=auto;html=1;exitX=0.5;exitY=1;exitDx=0;exitDy=0;" edge="1" parent="1" source="xVjce5FviYvm1MwedaSM-78">
          <mxGeometry relative="1" as="geometry">
            <mxPoint x="975.0952380952381" y="830" as="targetPoint" />
          </mxGeometry>
        </mxCell>
        <mxCell id="xVjce5FviYvm1MwedaSM-78" value="perror(&quot;Ошибка!&quot;);" style="shape=parallelogram;perimeter=parallelogramPerimeter;whiteSpace=wrap;html=1;fixedSize=1;" vertex="1" parent="1">
          <mxGeometry x="910" y="780" width="130" height="30" as="geometry" />
        </mxCell>
        <mxCell id="xVjce5FviYvm1MwedaSM-79" style="edgeStyle=orthogonalEdgeStyle;rounded=0;orthogonalLoop=1;jettySize=auto;html=1;exitX=0.5;exitY=1;exitDx=0;exitDy=0;" edge="1" parent="1" source="xVjce5FviYvm1MwedaSM-80">
          <mxGeometry relative="1" as="geometry">
            <mxPoint x="1130" y="900" as="targetPoint" />
            <Array as="points">
              <mxPoint x="975" y="900" />
            </Array>
          </mxGeometry>
        </mxCell>
        <mxCell id="xVjce5FviYvm1MwedaSM-80" value="return 1;" style="ellipse;whiteSpace=wrap;html=1;" vertex="1" parent="1">
          <mxGeometry x="915" y="830" width="120" height="40" as="geometry" />
        </mxCell>
        <mxCell id="xVjce5FviYvm1MwedaSM-81" value="1" style="text;html=1;align=center;verticalAlign=middle;resizable=0;points=[];autosize=1;strokeColor=none;fillColor=none;" vertex="1" parent="1">
          <mxGeometry x="1025" y="708" width="30" height="30" as="geometry" />
        </mxCell>
        <mxCell id="xVjce5FviYvm1MwedaSM-82" value="0" style="text;html=1;align=center;verticalAlign=middle;resizable=0;points=[];autosize=1;strokeColor=none;fillColor=none;" vertex="1" parent="1">
          <mxGeometry x="1170" y="708" width="30" height="30" as="geometry" />
        </mxCell>
        <mxCell id="xVjce5FviYvm1MwedaSM-83" style="edgeStyle=orthogonalEdgeStyle;rounded=0;orthogonalLoop=1;jettySize=auto;html=1;exitX=1;exitY=0.5;exitDx=0;exitDy=0;entryX=0.569;entryY=-0.067;entryDx=0;entryDy=0;entryPerimeter=0;" edge="1" parent="1" source="xVjce5FviYvm1MwedaSM-30" target="xVjce5FviYvm1MwedaSM-72">
          <mxGeometry relative="1" as="geometry" />
        </mxCell>
        <mxCell id="xVjce5FviYvm1MwedaSM-84" value="" style="endArrow=classic;html=1;rounded=0;" edge="1" parent="1">
          <mxGeometry width="50" height="50" relative="1" as="geometry">
            <mxPoint x="1130" y="900" as="sourcePoint" />
            <mxPoint x="1130" y="930" as="targetPoint" />
          </mxGeometry>
        </mxCell>
        <mxCell id="xVjce5FviYvm1MwedaSM-135" style="edgeStyle=orthogonalEdgeStyle;rounded=0;orthogonalLoop=1;jettySize=auto;html=1;exitX=1;exitY=0.5;exitDx=0;exitDy=0;" edge="1" parent="1" source="xVjce5FviYvm1MwedaSM-87">
          <mxGeometry relative="1" as="geometry">
            <mxPoint x="1840" y="1020" as="targetPoint" />
          </mxGeometry>
        </mxCell>
        <mxCell id="xVjce5FviYvm1MwedaSM-87" value="" style="verticalLabelPosition=bottom;verticalAlign=top;html=1;shape=hexagon;perimeter=hexagonPerimeter2;arcSize=6;size=0.11951219512195121;" vertex="1" parent="1">
          <mxGeometry x="1019.5014285714285" y="930" width="205" height="50" as="geometry" />
        </mxCell>
        <mxCell id="xVjce5FviYvm1MwedaSM-88" value="" style="edgeStyle=orthogonalEdgeStyle;rounded=0;orthogonalLoop=1;jettySize=auto;html=1;" edge="1" parent="1">
          <mxGeometry relative="1" as="geometry">
            <mxPoint x="1123.7614285714285" y="980" as="sourcePoint" />
            <mxPoint x="1124.0014285714285" y="1000" as="targetPoint" />
          </mxGeometry>
        </mxCell>
        <mxCell id="xVjce5FviYvm1MwedaSM-89" value="for (int i = 0; i &amp;lt; count_str; i++)" style="text;html=1;align=center;verticalAlign=middle;whiteSpace=wrap;rounded=0;" vertex="1" parent="1">
          <mxGeometry x="1042" y="950" width="160" height="20" as="geometry" />
        </mxCell>
        <mxCell id="xVjce5FviYvm1MwedaSM-91" value="bool flag = false;" style="rounded=0;whiteSpace=wrap;html=1;" vertex="1" parent="1">
          <mxGeometry x="1064.0014285714285" y="1000" width="120" height="30" as="geometry" />
        </mxCell>
        <mxCell id="xVjce5FviYvm1MwedaSM-92" value="" style="endArrow=classic;html=1;rounded=0;" edge="1" parent="1">
          <mxGeometry width="50" height="50" relative="1" as="geometry">
            <mxPoint x="1128" y="1030" as="sourcePoint" />
            <mxPoint x="1128" y="1060" as="targetPoint" />
          </mxGeometry>
        </mxCell>
        <mxCell id="xVjce5FviYvm1MwedaSM-122" style="edgeStyle=orthogonalEdgeStyle;rounded=0;orthogonalLoop=1;jettySize=auto;html=1;exitX=1;exitY=0.5;exitDx=0;exitDy=0;entryX=0.5;entryY=0;entryDx=0;entryDy=0;" edge="1" parent="1" source="xVjce5FviYvm1MwedaSM-93" target="xVjce5FviYvm1MwedaSM-118">
          <mxGeometry relative="1" as="geometry" />
        </mxCell>
        <mxCell id="xVjce5FviYvm1MwedaSM-93" value="" style="verticalLabelPosition=bottom;verticalAlign=top;html=1;shape=hexagon;perimeter=hexagonPerimeter2;arcSize=6;size=0.11951219512195121;" vertex="1" parent="1">
          <mxGeometry x="1017.5014285714285" y="1060" width="205" height="50" as="geometry" />
        </mxCell>
        <mxCell id="xVjce5FviYvm1MwedaSM-94" value="" style="edgeStyle=orthogonalEdgeStyle;rounded=0;orthogonalLoop=1;jettySize=auto;html=1;" edge="1" parent="1">
          <mxGeometry relative="1" as="geometry">
            <mxPoint x="1121.7614285714285" y="1110" as="sourcePoint" />
            <mxPoint x="1122.0014285714285" y="1130" as="targetPoint" />
          </mxGeometry>
        </mxCell>
        <mxCell id="xVjce5FviYvm1MwedaSM-95" value="for (int j = 0; j &amp;lt; count_w[i] &amp;amp;&amp;amp; flag == false; j++)" style="text;html=1;align=center;verticalAlign=middle;whiteSpace=wrap;rounded=0;" vertex="1" parent="1">
          <mxGeometry x="1040" y="1080" width="160" height="20" as="geometry" />
        </mxCell>
        <mxCell id="xVjce5FviYvm1MwedaSM-97" value="int k = j + 1;" style="rounded=0;whiteSpace=wrap;html=1;" vertex="1" parent="1">
          <mxGeometry x="1060.0014285714285" y="1130" width="120" height="30" as="geometry" />
        </mxCell>
        <mxCell id="xVjce5FviYvm1MwedaSM-98" style="edgeStyle=orthogonalEdgeStyle;rounded=0;orthogonalLoop=1;jettySize=auto;html=1;exitX=0.5;exitY=1;exitDx=0;exitDy=0;entryX=0.5;entryY=0;entryDx=0;entryDy=0;" edge="1" parent="1" target="xVjce5FviYvm1MwedaSM-100">
          <mxGeometry relative="1" as="geometry">
            <mxPoint x="1125.25" y="1160" as="sourcePoint" />
          </mxGeometry>
        </mxCell>
        <mxCell id="xVjce5FviYvm1MwedaSM-99" style="edgeStyle=orthogonalEdgeStyle;rounded=0;orthogonalLoop=1;jettySize=auto;html=1;exitX=0.5;exitY=1;exitDx=0;exitDy=0;" edge="1" parent="1" source="xVjce5FviYvm1MwedaSM-100">
          <mxGeometry relative="1" as="geometry">
            <mxPoint x="1124.8214285714287" y="1260" as="targetPoint" />
          </mxGeometry>
        </mxCell>
        <mxCell id="xVjce5FviYvm1MwedaSM-113" style="edgeStyle=orthogonalEdgeStyle;rounded=0;orthogonalLoop=1;jettySize=auto;html=1;exitX=1;exitY=0.5;exitDx=0;exitDy=0;entryX=0;entryY=0.5;entryDx=0;entryDy=0;" edge="1" parent="1" source="xVjce5FviYvm1MwedaSM-100" target="xVjce5FviYvm1MwedaSM-93">
          <mxGeometry relative="1" as="geometry">
            <Array as="points">
              <mxPoint x="1260" y="1210" />
              <mxPoint x="1260" y="1470" />
              <mxPoint x="900" y="1470" />
              <mxPoint x="900" y="1085" />
            </Array>
          </mxGeometry>
        </mxCell>
        <mxCell id="xVjce5FviYvm1MwedaSM-100" value="&lt;span style=&quot;font-size: 10px;&quot;&gt;while (flag != true &amp;amp;&amp;amp; k &amp;lt; count_w[i])&lt;/span&gt;" style="rhombus;whiteSpace=wrap;html=1;" vertex="1" parent="1">
          <mxGeometry x="1024.72" y="1180" width="200" height="60" as="geometry" />
        </mxCell>
        <mxCell id="xVjce5FviYvm1MwedaSM-106" style="edgeStyle=orthogonalEdgeStyle;rounded=0;orthogonalLoop=1;jettySize=auto;html=1;exitX=0;exitY=0.5;exitDx=0;exitDy=0;" edge="1" parent="1" source="xVjce5FviYvm1MwedaSM-105">
          <mxGeometry relative="1" as="geometry">
            <mxPoint x="970" y="1330" as="targetPoint" />
          </mxGeometry>
        </mxCell>
        <mxCell id="xVjce5FviYvm1MwedaSM-109" style="edgeStyle=orthogonalEdgeStyle;rounded=0;orthogonalLoop=1;jettySize=auto;html=1;exitX=1;exitY=0.5;exitDx=0;exitDy=0;" edge="1" parent="1" source="xVjce5FviYvm1MwedaSM-105">
          <mxGeometry relative="1" as="geometry">
            <mxPoint x="1120" y="1390" as="targetPoint" />
            <Array as="points">
              <mxPoint x="1245" y="1290" />
              <mxPoint x="1245" y="1390" />
            </Array>
          </mxGeometry>
        </mxCell>
        <mxCell id="xVjce5FviYvm1MwedaSM-105" value="&lt;span style=&quot;font-size: 10px;&quot;&gt;if (words[i][j] == words[i][k])&lt;/span&gt;" style="rhombus;whiteSpace=wrap;html=1;" vertex="1" parent="1">
          <mxGeometry x="1025" y="1260" width="200" height="60" as="geometry" />
        </mxCell>
        <mxCell id="xVjce5FviYvm1MwedaSM-108" style="edgeStyle=orthogonalEdgeStyle;rounded=0;orthogonalLoop=1;jettySize=auto;html=1;exitX=0.5;exitY=1;exitDx=0;exitDy=0;" edge="1" parent="1" source="xVjce5FviYvm1MwedaSM-107">
          <mxGeometry relative="1" as="geometry">
            <mxPoint x="1120" y="1390" as="targetPoint" />
            <Array as="points">
              <mxPoint x="980" y="1390" />
            </Array>
          </mxGeometry>
        </mxCell>
        <mxCell id="xVjce5FviYvm1MwedaSM-107" value="flag = true;" style="rounded=0;whiteSpace=wrap;html=1;" vertex="1" parent="1">
          <mxGeometry x="920.0014285714285" y="1330" width="120" height="30" as="geometry" />
        </mxCell>
        <mxCell id="xVjce5FviYvm1MwedaSM-110" value="" style="endArrow=classic;html=1;rounded=0;" edge="1" parent="1">
          <mxGeometry width="50" height="50" relative="1" as="geometry">
            <mxPoint x="1120" y="1390" as="sourcePoint" />
            <mxPoint x="1120" y="1410" as="targetPoint" />
          </mxGeometry>
        </mxCell>
        <mxCell id="xVjce5FviYvm1MwedaSM-112" style="edgeStyle=orthogonalEdgeStyle;rounded=0;orthogonalLoop=1;jettySize=auto;html=1;exitX=0.5;exitY=1;exitDx=0;exitDy=0;" edge="1" parent="1" source="xVjce5FviYvm1MwedaSM-111">
          <mxGeometry relative="1" as="geometry">
            <mxPoint x="1120" y="1170" as="targetPoint" />
            <Array as="points">
              <mxPoint x="1115" y="1460" />
              <mxPoint x="910" y="1460" />
              <mxPoint x="910" y="1170" />
            </Array>
          </mxGeometry>
        </mxCell>
        <mxCell id="xVjce5FviYvm1MwedaSM-111" value="k++;" style="rounded=0;whiteSpace=wrap;html=1;" vertex="1" parent="1">
          <mxGeometry x="1055.0014285714285" y="1410" width="120" height="30" as="geometry" />
        </mxCell>
        <mxCell id="xVjce5FviYvm1MwedaSM-116" style="edgeStyle=orthogonalEdgeStyle;rounded=0;orthogonalLoop=1;jettySize=auto;html=1;exitX=0;exitY=0.5;exitDx=0;exitDy=0;" edge="1" parent="1" source="xVjce5FviYvm1MwedaSM-118">
          <mxGeometry relative="1" as="geometry">
            <mxPoint x="1420" y="1250" as="targetPoint" />
          </mxGeometry>
        </mxCell>
        <mxCell id="xVjce5FviYvm1MwedaSM-132" style="edgeStyle=orthogonalEdgeStyle;rounded=0;orthogonalLoop=1;jettySize=auto;html=1;exitX=1;exitY=0.5;exitDx=0;exitDy=0;" edge="1" parent="1" source="xVjce5FviYvm1MwedaSM-118">
          <mxGeometry relative="1" as="geometry">
            <mxPoint x="1660" y="1360" as="targetPoint" />
            <Array as="points">
              <mxPoint x="1695" y="1210" />
              <mxPoint x="1695" y="1360" />
            </Array>
          </mxGeometry>
        </mxCell>
        <mxCell id="xVjce5FviYvm1MwedaSM-118" value="&lt;span style=&quot;font-size: 10px;&quot;&gt;if (flag)&lt;/span&gt;" style="rhombus;whiteSpace=wrap;html=1;" vertex="1" parent="1">
          <mxGeometry x="1475" y="1180" width="200" height="60" as="geometry" />
        </mxCell>
        <mxCell id="xVjce5FviYvm1MwedaSM-124" style="edgeStyle=orthogonalEdgeStyle;rounded=0;orthogonalLoop=1;jettySize=auto;html=1;exitX=1;exitY=0.5;exitDx=0;exitDy=0;" edge="1" source="xVjce5FviYvm1MwedaSM-125" parent="1">
          <mxGeometry relative="1" as="geometry">
            <mxPoint x="1600" y="1310" as="targetPoint" />
          </mxGeometry>
        </mxCell>
        <mxCell id="xVjce5FviYvm1MwedaSM-125" value="" style="verticalLabelPosition=bottom;verticalAlign=top;html=1;shape=hexagon;perimeter=hexagonPerimeter2;arcSize=6;size=0.11951219512195121;" vertex="1" parent="1">
          <mxGeometry x="1319.4714285714285" y="1250" width="205" height="50" as="geometry" />
        </mxCell>
        <mxCell id="xVjce5FviYvm1MwedaSM-126" value="" style="edgeStyle=orthogonalEdgeStyle;rounded=0;orthogonalLoop=1;jettySize=auto;html=1;" edge="1" parent="1">
          <mxGeometry relative="1" as="geometry">
            <mxPoint x="1423.7314285714285" y="1300" as="sourcePoint" />
            <mxPoint x="1423.9714285714285" y="1320" as="targetPoint" />
          </mxGeometry>
        </mxCell>
        <mxCell id="xVjce5FviYvm1MwedaSM-127" value="for (int j = 0; j &amp;lt; count_w[i]; j++)" style="text;html=1;align=center;verticalAlign=middle;whiteSpace=wrap;rounded=0;" vertex="1" parent="1">
          <mxGeometry x="1363.9714285714285" y="1260" width="120" height="30" as="geometry" />
        </mxCell>
        <mxCell id="xVjce5FviYvm1MwedaSM-128" value="" style="edgeStyle=orthogonalEdgeStyle;rounded=0;orthogonalLoop=1;jettySize=auto;html=1;entryX=0;entryY=0.5;entryDx=0;entryDy=0;" edge="1" target="xVjce5FviYvm1MwedaSM-125" parent="1">
          <mxGeometry relative="1" as="geometry">
            <mxPoint x="1423.9714285714285" y="1350" as="sourcePoint" />
            <mxPoint x="1303.9714285714285" y="1320" as="targetPoint" />
            <Array as="points">
              <mxPoint x="1423.9714285714285" y="1400" />
              <mxPoint x="1299.9714285714285" y="1400" />
              <mxPoint x="1299.9714285714285" y="1275" />
            </Array>
          </mxGeometry>
        </mxCell>
        <mxCell id="xVjce5FviYvm1MwedaSM-129" value="fprintf(in, &quot;%s &quot;, words[i][j].c_str());" style="rounded=0;whiteSpace=wrap;html=1;" vertex="1" parent="1">
          <mxGeometry x="1363.9714285714285" y="1320" width="120" height="30" as="geometry" />
        </mxCell>
        <mxCell id="xVjce5FviYvm1MwedaSM-133" style="edgeStyle=orthogonalEdgeStyle;rounded=0;orthogonalLoop=1;jettySize=auto;html=1;exitX=0.5;exitY=1;exitDx=0;exitDy=0;" edge="1" parent="1" source="xVjce5FviYvm1MwedaSM-130">
          <mxGeometry relative="1" as="geometry">
            <mxPoint x="1660" y="1360" as="targetPoint" />
          </mxGeometry>
        </mxCell>
        <mxCell id="xVjce5FviYvm1MwedaSM-130" value="fprintf(in, &quot;\n&quot;);" style="rounded=0;whiteSpace=wrap;html=1;" vertex="1" parent="1">
          <mxGeometry x="1534.0014285714285" y="1310" width="120" height="30" as="geometry" />
        </mxCell>
        <mxCell id="xVjce5FviYvm1MwedaSM-134" value="" style="endArrow=classic;html=1;rounded=0;entryX=0;entryY=0.5;entryDx=0;entryDy=0;" edge="1" parent="1" target="xVjce5FviYvm1MwedaSM-87">
          <mxGeometry width="50" height="50" relative="1" as="geometry">
            <mxPoint x="1660" y="1360" as="sourcePoint" />
            <mxPoint x="1710" y="1310" as="targetPoint" />
            <Array as="points">
              <mxPoint x="1660" y="1510" />
              <mxPoint x="880" y="1510" />
              <mxPoint x="890" y="955" />
            </Array>
          </mxGeometry>
        </mxCell>
        <mxCell id="xVjce5FviYvm1MwedaSM-136" value="fclose(in);" style="rounded=0;whiteSpace=wrap;html=1;" vertex="1" parent="1">
          <mxGeometry x="1780.0014285714285" y="1020" width="120" height="30" as="geometry" />
        </mxCell>
        <mxCell id="xVjce5FviYvm1MwedaSM-137" value="" style="edgeStyle=orthogonalEdgeStyle;rounded=0;orthogonalLoop=1;jettySize=auto;html=1;" edge="1" parent="1">
          <mxGeometry relative="1" as="geometry">
            <mxPoint x="1843.9714285714285" y="1050" as="sourcePoint" />
            <mxPoint x="1843.9714285714285" y="1070" as="targetPoint" />
          </mxGeometry>
        </mxCell>
        <mxCell id="xVjce5FviYvm1MwedaSM-138" style="edgeStyle=orthogonalEdgeStyle;rounded=0;orthogonalLoop=1;jettySize=auto;html=1;exitX=1;exitY=0.5;exitDx=0;exitDy=0;" edge="1" source="xVjce5FviYvm1MwedaSM-139" parent="1">
          <mxGeometry relative="1" as="geometry">
            <mxPoint x="2094" y="1150" as="targetPoint" />
          </mxGeometry>
        </mxCell>
        <mxCell id="xVjce5FviYvm1MwedaSM-139" value="" style="verticalLabelPosition=bottom;verticalAlign=top;html=1;shape=hexagon;perimeter=hexagonPerimeter2;arcSize=6;size=0.11951219512195121;" vertex="1" parent="1">
          <mxGeometry x="1739.4714285714285" y="1070" width="205" height="50" as="geometry" />
        </mxCell>
        <mxCell id="xVjce5FviYvm1MwedaSM-140" value="" style="edgeStyle=orthogonalEdgeStyle;rounded=0;orthogonalLoop=1;jettySize=auto;html=1;" edge="1" parent="1">
          <mxGeometry relative="1" as="geometry">
            <mxPoint x="1843.7314285714285" y="1120" as="sourcePoint" />
            <mxPoint x="1843.9714285714285" y="1140" as="targetPoint" />
          </mxGeometry>
        </mxCell>
        <mxCell id="xVjce5FviYvm1MwedaSM-141" value="for (int i = 0; i &lt; count_str; i++)" style="text;html=1;align=center;verticalAlign=middle;whiteSpace=wrap;rounded=0;" vertex="1" parent="1">
          <mxGeometry x="1783.9714285714285" y="1080" width="120" height="30" as="geometry" />
        </mxCell>
        <mxCell id="xVjce5FviYvm1MwedaSM-142" value="" style="edgeStyle=orthogonalEdgeStyle;rounded=0;orthogonalLoop=1;jettySize=auto;html=1;entryX=0;entryY=0.5;entryDx=0;entryDy=0;" edge="1" target="xVjce5FviYvm1MwedaSM-139" parent="1">
          <mxGeometry relative="1" as="geometry">
            <mxPoint x="1843.9714285714285" y="1170" as="sourcePoint" />
            <mxPoint x="1723.9714285714285" y="1140" as="targetPoint" />
            <Array as="points">
              <mxPoint x="1843.9714285714285" y="1220" />
              <mxPoint x="1719.9714285714285" y="1220" />
              <mxPoint x="1719.9714285714285" y="1095" />
            </Array>
          </mxGeometry>
        </mxCell>
        <mxCell id="xVjce5FviYvm1MwedaSM-143" value="delete[] words[i];" style="rounded=0;whiteSpace=wrap;html=1;" vertex="1" parent="1">
          <mxGeometry x="1783.9714285714285" y="1140" width="120" height="30" as="geometry" />
        </mxCell>
        <mxCell id="xVjce5FviYvm1MwedaSM-146" style="edgeStyle=orthogonalEdgeStyle;rounded=0;orthogonalLoop=1;jettySize=auto;html=1;exitX=0.5;exitY=1;exitDx=0;exitDy=0;" edge="1" parent="1" source="xVjce5FviYvm1MwedaSM-145">
          <mxGeometry relative="1" as="geometry">
            <mxPoint x="2089.8518518518517" y="1200" as="targetPoint" />
          </mxGeometry>
        </mxCell>
        <mxCell id="xVjce5FviYvm1MwedaSM-145" value="delete[] words;" style="rounded=0;whiteSpace=wrap;html=1;" vertex="1" parent="1">
          <mxGeometry x="2030.0014285714285" y="1150" width="120" height="30" as="geometry" />
        </mxCell>
        <mxCell id="xVjce5FviYvm1MwedaSM-148" style="edgeStyle=orthogonalEdgeStyle;rounded=0;orthogonalLoop=1;jettySize=auto;html=1;exitX=0.5;exitY=1;exitDx=0;exitDy=0;" edge="1" parent="1" source="xVjce5FviYvm1MwedaSM-147">
          <mxGeometry relative="1" as="geometry">
            <mxPoint x="2089.8518518518517" y="1250" as="targetPoint" />
          </mxGeometry>
        </mxCell>
        <mxCell id="xVjce5FviYvm1MwedaSM-147" value="delete[] count_w;" style="rounded=0;whiteSpace=wrap;html=1;" vertex="1" parent="1">
          <mxGeometry x="2030.0014285714285" y="1200" width="120" height="30" as="geometry" />
        </mxCell>
        <mxCell id="xVjce5FviYvm1MwedaSM-149" value="return 0;" style="ellipse;whiteSpace=wrap;html=1;" vertex="1" parent="1">
          <mxGeometry x="2030" y="1250" width="120" height="40" as="geometry" />
        </mxCell>
        <mxCell id="xVjce5FviYvm1MwedaSM-150" value="}" style="text;html=1;align=center;verticalAlign=middle;resizable=0;points=[];autosize=1;strokeColor=none;fillColor=none;" vertex="1" parent="1">
          <mxGeometry x="2135" y="1278" width="30" height="30" as="geometry" />
        </mxCell>
        <mxCell id="xVjce5FviYvm1MwedaSM-151" value="{" style="text;html=1;align=center;verticalAlign=middle;resizable=0;points=[];autosize=1;strokeColor=none;fillColor=none;" vertex="1" parent="1">
          <mxGeometry x="1005" y="968" width="30" height="30" as="geometry" />
        </mxCell>
        <mxCell id="xVjce5FviYvm1MwedaSM-152" value="}" style="text;html=1;align=center;verticalAlign=middle;resizable=0;points=[];autosize=1;strokeColor=none;fillColor=none;" vertex="1" parent="1">
          <mxGeometry x="1655" y="1368" width="30" height="30" as="geometry" />
        </mxCell>
        <mxCell id="xVjce5FviYvm1MwedaSM-153" value="{" style="text;html=1;align=center;verticalAlign=middle;resizable=0;points=[];autosize=1;strokeColor=none;fillColor=none;" vertex="1" parent="1">
          <mxGeometry x="1375" y="1208" width="30" height="30" as="geometry" />
        </mxCell>
        <mxCell id="xVjce5FviYvm1MwedaSM-154" value="}" style="text;html=1;align=center;verticalAlign=middle;resizable=0;points=[];autosize=1;strokeColor=none;fillColor=none;" vertex="1" parent="1">
          <mxGeometry x="1560" y="1338" width="30" height="30" as="geometry" />
        </mxCell>
        <mxCell id="xVjce5FviYvm1MwedaSM-156" value="1" style="text;html=1;align=center;verticalAlign=middle;resizable=0;points=[];autosize=1;strokeColor=none;fillColor=none;" vertex="1" parent="1">
          <mxGeometry x="1465" y="1168" width="30" height="30" as="geometry" />
        </mxCell>
        <mxCell id="xVjce5FviYvm1MwedaSM-157" value="0" style="text;html=1;align=center;verticalAlign=middle;resizable=0;points=[];autosize=1;strokeColor=none;fillColor=none;" vertex="1" parent="1">
          <mxGeometry x="1635" y="1158" width="30" height="30" as="geometry" />
        </mxCell>
        <mxCell id="xVjce5FviYvm1MwedaSM-158" value="{" style="text;html=1;align=center;verticalAlign=middle;resizable=0;points=[];autosize=1;strokeColor=none;fillColor=none;" vertex="1" parent="1">
          <mxGeometry x="1065" y="1238" width="30" height="30" as="geometry" />
        </mxCell>
        <mxCell id="xVjce5FviYvm1MwedaSM-159" value="}" style="text;html=1;align=center;verticalAlign=middle;resizable=0;points=[];autosize=1;strokeColor=none;fillColor=none;" vertex="1" parent="1">
          <mxGeometry x="1184" y="1390" width="30" height="30" as="geometry" />
        </mxCell>
        <mxCell id="xVjce5FviYvm1MwedaSM-160" value="{" style="text;html=1;align=center;verticalAlign=middle;resizable=0;points=[];autosize=1;strokeColor=none;fillColor=none;" vertex="1" parent="1">
          <mxGeometry x="1025" y="1110" width="30" height="30" as="geometry" />
        </mxCell>
        <mxCell id="xVjce5FviYvm1MwedaSM-161" value="}" style="text;html=1;align=center;verticalAlign=middle;resizable=0;points=[];autosize=1;strokeColor=none;fillColor=none;" vertex="1" parent="1">
          <mxGeometry x="1260" y="1198" width="30" height="30" as="geometry" />
        </mxCell>
        <mxCell id="xVjce5FviYvm1MwedaSM-162" value="{" style="text;html=1;align=center;verticalAlign=middle;resizable=0;points=[];autosize=1;strokeColor=none;fillColor=none;" vertex="1" parent="1">
          <mxGeometry x="1005" y="738" width="30" height="30" as="geometry" />
        </mxCell>
        <mxCell id="xVjce5FviYvm1MwedaSM-163" value="}" style="text;html=1;align=center;verticalAlign=middle;resizable=0;points=[];autosize=1;strokeColor=none;fillColor=none;" vertex="1" parent="1">
          <mxGeometry x="975" y="878" width="30" height="30" as="geometry" />
        </mxCell>
        <mxCell id="xVjce5FviYvm1MwedaSM-164" value="{" style="text;html=1;align=center;verticalAlign=middle;resizable=0;points=[];autosize=1;strokeColor=none;fillColor=none;" vertex="1" parent="1">
          <mxGeometry x="425" y="628" width="30" height="30" as="geometry" />
        </mxCell>
        <mxCell id="xVjce5FviYvm1MwedaSM-165" value="{" style="text;html=1;align=center;verticalAlign=middle;resizable=0;points=[];autosize=1;strokeColor=none;fillColor=none;" vertex="1" parent="1">
          <mxGeometry x="635" y="1228" width="30" height="30" as="geometry" />
        </mxCell>
        <mxCell id="xVjce5FviYvm1MwedaSM-166" value="}" style="text;html=1;align=center;verticalAlign=middle;resizable=0;points=[];autosize=1;strokeColor=none;fillColor=none;" vertex="1" parent="1">
          <mxGeometry x="745" y="1328" width="30" height="30" as="geometry" />
        </mxCell>
        <mxCell id="xVjce5FviYvm1MwedaSM-167" value="}" style="text;html=1;align=center;verticalAlign=middle;resizable=0;points=[];autosize=1;strokeColor=none;fillColor=none;" vertex="1" parent="1">
          <mxGeometry x="835" y="1208" width="30" height="30" as="geometry" />
        </mxCell>
        <mxCell id="xVjce5FviYvm1MwedaSM-168" value="{" style="text;html=1;align=center;verticalAlign=middle;resizable=0;points=[];autosize=1;strokeColor=none;fillColor=none;" vertex="1" parent="1">
          <mxGeometry x="435" y="898" width="30" height="30" as="geometry" />
        </mxCell>
        <mxCell id="xVjce5FviYvm1MwedaSM-169" value="}" style="text;html=1;align=center;verticalAlign=middle;resizable=0;points=[];autosize=1;strokeColor=none;fillColor=none;" vertex="1" parent="1">
          <mxGeometry x="535" y="1028" width="30" height="30" as="geometry" />
        </mxCell>
        <mxCell id="xVjce5FviYvm1MwedaSM-170" value="{" style="text;html=1;align=center;verticalAlign=middle;resizable=0;points=[];autosize=1;strokeColor=none;fillColor=none;" vertex="1" parent="1">
          <mxGeometry x="165" y="268" width="30" height="30" as="geometry" />
        </mxCell>
        <mxCell id="xVjce5FviYvm1MwedaSM-171" value="}" style="text;html=1;align=center;verticalAlign=middle;resizable=0;points=[];autosize=1;strokeColor=none;fillColor=none;" vertex="1" parent="1">
          <mxGeometry x="155" y="398" width="30" height="30" as="geometry" />
        </mxCell>
        <mxCell id="xVjce5FviYvm1MwedaSM-172" value="{" style="text;html=1;align=center;verticalAlign=middle;resizable=0;points=[];autosize=1;strokeColor=none;fillColor=none;" vertex="1" parent="1">
          <mxGeometry x="215" y="118" width="30" height="30" as="geometry" />
        </mxCell>
      </root>
    </mxGraphModel>
  </diagram>
</mxfile>
